<mxfile host="app.diagrams.net" agent="Mozilla/5.0 (Windows NT 10.0; Win64; x64) AppleWebKit/537.36 (KHTML, like Gecko) Chrome/127.0.0.0 Safari/537.36" version="24.7.6">
  <diagram name="ページ1" id="-MHORYxmXkgk6OEYyXIY">
    <mxGraphModel dx="1153" dy="548" grid="1" gridSize="10" guides="1" tooltips="1" connect="1" arrows="1" fold="1" page="1" pageScale="1" pageWidth="827" pageHeight="1169" math="0" shadow="0">
      <root>
        <mxCell id="0" />
        <mxCell id="1" parent="0" />
        <mxCell id="OlAqE655WdlyNZaHh5r8-6" value="北の道の駅HPサーバ" style="swimlane;whiteSpace=wrap;html=1;startSize=23;" parent="1" vertex="1">
          <mxGeometry x="39" y="170" width="750" height="420" as="geometry" />
        </mxCell>
        <mxCell id="OlAqE655WdlyNZaHh5r8-19" value="" style="points=[[0.25,0.25,0],[0.5,0,0],[0.75,0.25,0],[1,0.5,0],[0.75,0.75,0],[0.5,1,0],[0.25,0.75,0],[0,0.5,0]];shape=mxgraph.bpmn.gateway2;html=1;verticalLabelPosition=bottom;labelBackgroundColor=#ffffff;verticalAlign=top;align=center;perimeter=rhombusPerimeter;outlineConnect=0;outline=standard;symbol=timer;direction=south;" parent="OlAqE655WdlyNZaHh5r8-6" vertex="1">
          <mxGeometry x="10" y="60" width="60" height="60" as="geometry" />
        </mxCell>
        <mxCell id="OlAqE655WdlyNZaHh5r8-20" value="サーバのタイマー機能" style="text;html=1;align=center;verticalAlign=middle;resizable=0;points=[];autosize=1;strokeColor=none;fillColor=none;" parent="OlAqE655WdlyNZaHh5r8-6" vertex="1">
          <mxGeometry x="10" y="30" width="140" height="30" as="geometry" />
        </mxCell>
        <mxCell id="OlAqE655WdlyNZaHh5r8-31" value="" style="edgeStyle=orthogonalEdgeStyle;rounded=0;orthogonalLoop=1;jettySize=auto;html=1;" parent="OlAqE655WdlyNZaHh5r8-6" source="OlAqE655WdlyNZaHh5r8-26" target="OlAqE655WdlyNZaHh5r8-27" edge="1">
          <mxGeometry relative="1" as="geometry" />
        </mxCell>
        <mxCell id="OlAqE655WdlyNZaHh5r8-41" value="移動" style="edgeLabel;html=1;align=center;verticalAlign=middle;resizable=0;points=[];" parent="OlAqE655WdlyNZaHh5r8-31" vertex="1" connectable="0">
          <mxGeometry x="0.0471" relative="1" as="geometry">
            <mxPoint as="offset" />
          </mxGeometry>
        </mxCell>
        <mxCell id="OlAqE655WdlyNZaHh5r8-26" value="PDFストレージ" style="shape=dataStorage;whiteSpace=wrap;html=1;fixedSize=1;" parent="OlAqE655WdlyNZaHh5r8-6" vertex="1">
          <mxGeometry x="560" y="190" width="160" height="60" as="geometry" />
        </mxCell>
        <mxCell id="OlAqE655WdlyNZaHh5r8-27" value="PDFストレージ&lt;div&gt;（アーカイブ用）&lt;/div&gt;" style="shape=dataStorage;whiteSpace=wrap;html=1;fixedSize=1;" parent="OlAqE655WdlyNZaHh5r8-6" vertex="1">
          <mxGeometry x="560" y="40" width="160" height="90" as="geometry" />
        </mxCell>
        <mxCell id="OlAqE655WdlyNZaHh5r8-35" value="バッチ処理（PHP）" style="swimlane;whiteSpace=wrap;html=1;" parent="OlAqE655WdlyNZaHh5r8-6" vertex="1">
          <mxGeometry x="160" y="40" width="348" height="230" as="geometry" />
        </mxCell>
        <mxCell id="OlAqE655WdlyNZaHh5r8-39" value="" style="rounded=0;whiteSpace=wrap;html=1;" parent="OlAqE655WdlyNZaHh5r8-35" vertex="1">
          <mxGeometry x="19" y="150" width="211" height="60" as="geometry" />
        </mxCell>
        <mxCell id="OlAqE655WdlyNZaHh5r8-63" value="" style="edgeStyle=orthogonalEdgeStyle;rounded=0;orthogonalLoop=1;jettySize=auto;html=1;" parent="OlAqE655WdlyNZaHh5r8-35" source="OlAqE655WdlyNZaHh5r8-60" edge="1">
          <mxGeometry relative="1" as="geometry">
            <mxPoint x="110" y="150" as="targetPoint" />
          </mxGeometry>
        </mxCell>
        <mxCell id="OlAqE655WdlyNZaHh5r8-64" value="Yes" style="edgeLabel;html=1;align=center;verticalAlign=middle;resizable=0;points=[];" parent="OlAqE655WdlyNZaHh5r8-63" vertex="1" connectable="0">
          <mxGeometry x="-0.2345" y="-2" relative="1" as="geometry">
            <mxPoint as="offset" />
          </mxGeometry>
        </mxCell>
        <mxCell id="OlAqE655WdlyNZaHh5r8-60" value="北のひろめーるの&lt;div&gt;新規メールが存在&lt;/div&gt;" style="rhombus;whiteSpace=wrap;html=1;" parent="OlAqE655WdlyNZaHh5r8-35" vertex="1">
          <mxGeometry x="10" y="50" width="200" height="70" as="geometry" />
        </mxCell>
        <mxCell id="OlAqE655WdlyNZaHh5r8-71" value="処理終了" style="text;html=1;align=center;verticalAlign=middle;resizable=0;points=[];autosize=1;strokeColor=none;fillColor=none;" parent="OlAqE655WdlyNZaHh5r8-35" vertex="1">
          <mxGeometry x="260" y="70" width="70" height="30" as="geometry" />
        </mxCell>
        <mxCell id="OlAqE655WdlyNZaHh5r8-69" value="" style="edgeStyle=none;orthogonalLoop=1;jettySize=auto;html=1;rounded=0;entryX=0.1;entryY=0.467;entryDx=0;entryDy=0;entryPerimeter=0;" parent="OlAqE655WdlyNZaHh5r8-35" target="OlAqE655WdlyNZaHh5r8-71" edge="1">
          <mxGeometry width="100" relative="1" as="geometry">
            <mxPoint x="210" y="84.88" as="sourcePoint" />
            <mxPoint x="250" y="84.88" as="targetPoint" />
            <Array as="points" />
          </mxGeometry>
        </mxCell>
        <mxCell id="OlAqE655WdlyNZaHh5r8-70" value="No" style="edgeLabel;html=1;align=center;verticalAlign=middle;resizable=0;points=[];" parent="OlAqE655WdlyNZaHh5r8-69" vertex="1" connectable="0">
          <mxGeometry x="0.0404" relative="1" as="geometry">
            <mxPoint x="-1" as="offset" />
          </mxGeometry>
        </mxCell>
        <mxCell id="OlAqE655WdlyNZaHh5r8-140" value="" style="endArrow=none;dashed=1;html=1;dashPattern=1 3;strokeWidth=2;rounded=0;edgeStyle=orthogonalEdgeStyle;" parent="OlAqE655WdlyNZaHh5r8-35" edge="1">
          <mxGeometry width="50" height="50" relative="1" as="geometry">
            <mxPoint y="50" as="sourcePoint" />
            <mxPoint x="70" as="targetPoint" />
            <Array as="points">
              <mxPoint x="70" y="50" />
            </Array>
          </mxGeometry>
        </mxCell>
        <mxCell id="OlAqE655WdlyNZaHh5r8-144" value="" style="edgeStyle=orthogonalEdgeStyle;rounded=0;orthogonalLoop=1;jettySize=auto;html=1;entryX=-0.02;entryY=0.535;entryDx=0;entryDy=0;entryPerimeter=0;" parent="OlAqE655WdlyNZaHh5r8-35" target="OlAqE655WdlyNZaHh5r8-151" edge="1">
          <mxGeometry relative="1" as="geometry">
            <mxPoint x="220" y="179.9999999999999" as="sourcePoint" />
            <mxPoint x="309" y="180.0000000000001" as="targetPoint" />
          </mxGeometry>
        </mxCell>
        <mxCell id="OlAqE655WdlyNZaHh5r8-147" value="圧縮" style="edgeLabel;html=1;align=center;verticalAlign=middle;resizable=0;points=[];" parent="OlAqE655WdlyNZaHh5r8-144" vertex="1" connectable="0">
          <mxGeometry x="-0.0108" relative="1" as="geometry">
            <mxPoint as="offset" />
          </mxGeometry>
        </mxCell>
        <mxCell id="OlAqE655WdlyNZaHh5r8-149" value="メール" style="text;html=1;align=center;verticalAlign=middle;whiteSpace=wrap;rounded=0;" parent="OlAqE655WdlyNZaHh5r8-35" vertex="1">
          <mxGeometry x="59" y="165" width="60" height="30" as="geometry" />
        </mxCell>
        <mxCell id="OlAqE655WdlyNZaHh5r8-150" value="PDF" style="whiteSpace=wrap;html=1;shape=mxgraph.basic.document" parent="OlAqE655WdlyNZaHh5r8-35" vertex="1">
          <mxGeometry x="149" y="160" width="70" height="40" as="geometry" />
        </mxCell>
        <mxCell id="OlAqE655WdlyNZaHh5r8-153" style="edgeStyle=orthogonalEdgeStyle;rounded=0;orthogonalLoop=1;jettySize=auto;html=1;" parent="OlAqE655WdlyNZaHh5r8-35" source="OlAqE655WdlyNZaHh5r8-151" edge="1">
          <mxGeometry relative="1" as="geometry">
            <mxPoint x="399" y="180" as="targetPoint" />
          </mxGeometry>
        </mxCell>
        <mxCell id="OlAqE655WdlyNZaHh5r8-154" value="保存" style="edgeLabel;html=1;align=center;verticalAlign=middle;resizable=0;points=[];" parent="OlAqE655WdlyNZaHh5r8-153" vertex="1" connectable="0">
          <mxGeometry x="-0.0088" y="1" relative="1" as="geometry">
            <mxPoint x="-1" y="-1" as="offset" />
          </mxGeometry>
        </mxCell>
        <mxCell id="OlAqE655WdlyNZaHh5r8-151" value="" style="whiteSpace=wrap;html=1;shape=mxgraph.basic.document" parent="OlAqE655WdlyNZaHh5r8-35" vertex="1">
          <mxGeometry x="301" y="160" width="29" height="37.5" as="geometry" />
        </mxCell>
        <mxCell id="OlAqE655WdlyNZaHh5r8-21" value="" style="edgeStyle=orthogonalEdgeStyle;rounded=0;orthogonalLoop=1;jettySize=auto;html=1;" parent="OlAqE655WdlyNZaHh5r8-6" source="OlAqE655WdlyNZaHh5r8-19" edge="1">
          <mxGeometry relative="1" as="geometry">
            <mxPoint x="160" y="90" as="targetPoint" />
            <Array as="points">
              <mxPoint x="160" y="90" />
            </Array>
          </mxGeometry>
        </mxCell>
        <mxCell id="OlAqE655WdlyNZaHh5r8-37" value="定期起動" style="edgeLabel;html=1;align=center;verticalAlign=middle;resizable=0;points=[];" parent="OlAqE655WdlyNZaHh5r8-21" vertex="1" connectable="0">
          <mxGeometry x="-0.5301" relative="1" as="geometry">
            <mxPoint x="16" as="offset" />
          </mxGeometry>
        </mxCell>
        <mxCell id="OlAqE655WdlyNZaHh5r8-47" value="北の道の駅HP（WordPress&lt;span style=&quot;background-color: initial;&quot;&gt;）&lt;/span&gt;" style="swimlane;whiteSpace=wrap;html=1;fillColor=default;startSize=23;" parent="OlAqE655WdlyNZaHh5r8-6" vertex="1">
          <mxGeometry x="21" y="290" width="581" height="110" as="geometry" />
        </mxCell>
        <mxCell id="T5TPXQN1LWVL3ldUUxb4-9" value="" style="edgeStyle=none;curved=1;rounded=0;orthogonalLoop=1;jettySize=auto;html=1;fontSize=12;startSize=8;endSize=8;entryX=0;entryY=0.5;entryDx=0;entryDy=0;" edge="1" parent="OlAqE655WdlyNZaHh5r8-47" source="OlAqE655WdlyNZaHh5r8-120" target="T5TPXQN1LWVL3ldUUxb4-5">
          <mxGeometry relative="1" as="geometry" />
        </mxCell>
        <mxCell id="OlAqE655WdlyNZaHh5r8-120" value="トップページ" style="swimlane;whiteSpace=wrap;html=1;" parent="OlAqE655WdlyNZaHh5r8-47" vertex="1">
          <mxGeometry x="12" y="40" width="178" height="54" as="geometry" />
        </mxCell>
        <mxCell id="OlAqE655WdlyNZaHh5r8-129" value="リンク付きバナー" style="text;html=1;align=center;verticalAlign=middle;resizable=0;points=[];autosize=1;strokeColor=none;fillColor=none;" parent="OlAqE655WdlyNZaHh5r8-120" vertex="1">
          <mxGeometry x="37" y="24" width="120" height="30" as="geometry" />
        </mxCell>
        <mxCell id="T5TPXQN1LWVL3ldUUxb4-5" value="PDF表示ページ" style="swimlane;whiteSpace=wrap;html=1;startSize=23;" vertex="1" parent="OlAqE655WdlyNZaHh5r8-47">
          <mxGeometry x="210" y="40" width="355" height="54" as="geometry" />
        </mxCell>
        <mxCell id="T5TPXQN1LWVL3ldUUxb4-6" value="メールの本文・PDFの埋め込み表示" style="text;html=1;align=center;verticalAlign=middle;resizable=0;points=[];autosize=1;strokeColor=none;fillColor=none;" vertex="1" parent="T5TPXQN1LWVL3ldUUxb4-5">
          <mxGeometry x="74" y="24" width="220" height="30" as="geometry" />
        </mxCell>
        <mxCell id="OlAqE655WdlyNZaHh5r8-25" value="" style="edgeStyle=orthogonalEdgeStyle;rounded=0;orthogonalLoop=1;jettySize=auto;html=1;entryX=0.095;entryY=1.027;entryDx=0;entryDy=0;entryPerimeter=0;" parent="OlAqE655WdlyNZaHh5r8-6" edge="1" target="OlAqE655WdlyNZaHh5r8-8">
          <mxGeometry relative="1" as="geometry">
            <mxPoint x="230" y="40" as="sourcePoint" />
            <mxPoint x="230" y="-40" as="targetPoint" />
            <Array as="points" />
          </mxGeometry>
        </mxCell>
        <mxCell id="OlAqE655WdlyNZaHh5r8-38" value="問い合わせ" style="edgeLabel;html=1;align=center;verticalAlign=middle;resizable=0;points=[];" parent="OlAqE655WdlyNZaHh5r8-25" vertex="1" connectable="0">
          <mxGeometry x="0.3223" relative="1" as="geometry">
            <mxPoint y="-7" as="offset" />
          </mxGeometry>
        </mxCell>
        <mxCell id="OlAqE655WdlyNZaHh5r8-108" style="edgeStyle=elbowEdgeStyle;rounded=0;orthogonalLoop=1;jettySize=auto;html=1;entryX=1;entryY=0.5;entryDx=0;entryDy=0;exitX=0.5;exitY=1;exitDx=0;exitDy=0;dashed=1;" parent="OlAqE655WdlyNZaHh5r8-6" source="OlAqE655WdlyNZaHh5r8-26" target="T5TPXQN1LWVL3ldUUxb4-5" edge="1">
          <mxGeometry relative="1" as="geometry">
            <mxPoint x="541" y="190" as="sourcePoint" />
            <mxPoint x="428" y="355" as="targetPoint" />
            <Array as="points">
              <mxPoint x="641" y="310" />
            </Array>
          </mxGeometry>
        </mxCell>
        <mxCell id="OlAqE655WdlyNZaHh5r8-9" value="" style="edgeStyle=orthogonalEdgeStyle;rounded=0;orthogonalLoop=1;jettySize=auto;html=1;" parent="1" source="OlAqE655WdlyNZaHh5r8-7" target="OlAqE655WdlyNZaHh5r8-8" edge="1">
          <mxGeometry relative="1" as="geometry">
            <Array as="points">
              <mxPoint x="210" y="90" />
              <mxPoint x="210" y="90" />
            </Array>
          </mxGeometry>
        </mxCell>
        <mxCell id="OlAqE655WdlyNZaHh5r8-7" value="北のひろめーる&lt;div&gt;（北海道警察本部交通）&lt;/div&gt;" style="rounded=0;whiteSpace=wrap;html=1;" parent="1" vertex="1">
          <mxGeometry x="41" y="60" width="150" height="80" as="geometry" />
        </mxCell>
        <mxCell id="OlAqE655WdlyNZaHh5r8-8" value="メールサーバ" style="whiteSpace=wrap;html=1;rounded=0;align=center;" parent="1" vertex="1">
          <mxGeometry x="230" y="60" width="410" height="60" as="geometry" />
        </mxCell>
        <mxCell id="OlAqE655WdlyNZaHh5r8-52" value="&lt;div&gt;&lt;br&gt;&lt;/div&gt;&lt;div&gt;&lt;br&gt;&lt;/div&gt;" style="shape=actor;whiteSpace=wrap;html=1;" parent="1" vertex="1">
          <mxGeometry x="670" y="610" width="40" height="60" as="geometry" />
        </mxCell>
        <mxCell id="OlAqE655WdlyNZaHh5r8-53" value="" style="shape=actor;whiteSpace=wrap;html=1;" parent="1" vertex="1">
          <mxGeometry x="620" y="610" width="40" height="60" as="geometry" />
        </mxCell>
        <mxCell id="OlAqE655WdlyNZaHh5r8-111" value="" style="edgeStyle=orthogonalEdgeStyle;rounded=0;orthogonalLoop=1;jettySize=auto;html=1;dashed=1;" parent="1" source="OlAqE655WdlyNZaHh5r8-87" target="OlAqE655WdlyNZaHh5r8-94" edge="1">
          <mxGeometry relative="1" as="geometry" />
        </mxCell>
        <mxCell id="OlAqE655WdlyNZaHh5r8-87" value="Web" style="ellipse;whiteSpace=wrap;html=1;" parent="1" vertex="1">
          <mxGeometry x="325" y="615" width="100" height="55" as="geometry" />
        </mxCell>
        <mxCell id="OlAqE655WdlyNZaHh5r8-94" value="デバイス" style="ellipse;whiteSpace=wrap;html=1;" parent="1" vertex="1">
          <mxGeometry x="470" y="615" width="100" height="55" as="geometry" />
        </mxCell>
        <mxCell id="OlAqE655WdlyNZaHh5r8-96" value="ユーザ" style="text;html=1;align=center;verticalAlign=middle;resizable=0;points=[];autosize=1;strokeColor=none;fillColor=none;" parent="1" vertex="1">
          <mxGeometry x="570" y="590" width="60" height="30" as="geometry" />
        </mxCell>
        <mxCell id="OlAqE655WdlyNZaHh5r8-135" style="edgeStyle=elbowEdgeStyle;rounded=0;orthogonalLoop=1;jettySize=auto;html=1;entryX=0.5;entryY=0;entryDx=0;entryDy=0;" parent="1" source="OlAqE655WdlyNZaHh5r8-131" target="OlAqE655WdlyNZaHh5r8-60" edge="1">
          <mxGeometry relative="1" as="geometry" />
        </mxCell>
        <mxCell id="OlAqE655WdlyNZaHh5r8-131" value="メール" style="rounded=0;whiteSpace=wrap;html=1;" parent="1" vertex="1">
          <mxGeometry x="250" y="70" width="120" height="40" as="geometry" />
        </mxCell>
        <mxCell id="T5TPXQN1LWVL3ldUUxb4-1" value="" style="shape=actor;whiteSpace=wrap;html=1;" vertex="1" parent="1">
          <mxGeometry x="720" y="610" width="40" height="60" as="geometry" />
        </mxCell>
        <mxCell id="T5TPXQN1LWVL3ldUUxb4-7" value="" style="edgeStyle=none;curved=1;rounded=0;orthogonalLoop=1;jettySize=auto;html=1;fontSize=12;startSize=8;endSize=8;entryX=0.5;entryY=0;entryDx=0;entryDy=0;exitX=0.14;exitY=1.026;exitDx=0;exitDy=0;exitPerimeter=0;dashed=1;" edge="1" parent="1" source="T5TPXQN1LWVL3ldUUxb4-6" target="OlAqE655WdlyNZaHh5r8-87">
          <mxGeometry relative="1" as="geometry" />
        </mxCell>
      </root>
    </mxGraphModel>
  </diagram>
</mxfile>
